<svg xmlns="http://www.w3.org/2000/svg" viewBox="0 0 1248 1248" width="1248" height="1248">
  <path d="M 970 875 L 970 954 L 981 954 L 981 875 Z M 873 875 L 871 877 L 871 878 L 870 879 L 870 880 L 869 881 L 869 882 L 867 884 L 867 885 L 866 886 L 866 887 L 865 888 L 865 889 L 863 891 L 863 892 L 862 893 L 862 894 L 861 895 L 861 896 L 860 897 L 860 898 L 859 899 L 859 900 L 857 902 L 857 903 L 856 904 L 856 905 L 855 906 L 855 907 L 853 909 L 853 910 L 852 911 L 852 912 L 851 913 L 851 914 L 850 915 L 850 916 L 848 918 L 848 919 L 847 920 L 847 921 L 846 922 L 846 923 L 844 925 L 844 926 L 843 927 L 843 928 L 842 929 L 842 930 L 841 931 L 841 932 L 839 934 L 839 935 L 838 936 L 838 937 L 837 938 L 837 939 L 836 940 L 836 941 L 834 943 L 834 944 L 833 945 L 833 946 L 832 947 L 832 948 L 831 949 L 831 950 L 830 951 L 830 952 L 829 953 L 829 954 L 841 954 L 841 953 L 843 951 L 843 950 L 844 949 L 844 948 L 845 947 L 845 946 L 846 945 L 846 944 L 847 943 L 847 942 L 849 940 L 849 939 L 850 938 L 850 937 L 851 936 L 851 935 L 853 933 L 853 932 L 854 931 L 854 930 L 855 929 L 855 928 L 856 927 L 856 926 L 858 924 L 858 923 L 859 922 L 859 921 L 860 920 L 860 919 L 862 917 L 862 916 L 863 915 L 863 914 L 864 913 L 864 912 L 865 911 L 865 910 L 867 908 L 867 907 L 868 906 L 868 905 L 869 904 L 869 903 L 870 902 L 870 901 L 872 899 L 872 898 L 873 897 L 873 896 L 874 895 L 874 894 L 875 893 L 875 892 L 877 890 L 877 889 L 878 888 L 879 889 L 879 890 L 880 891 L 880 892 L 882 894 L 882 895 L 883 896 L 883 897 L 884 898 L 884 899 L 885 900 L 885 901 L 886 902 L 886 903 L 888 905 L 888 906 L 889 907 L 889 908 L 890 909 L 890 910 L 892 912 L 892 913 L 893 914 L 893 915 L 894 916 L 894 917 L 895 918 L 895 919 L 896 920 L 896 921 L 898 923 L 898 924 L 899 925 L 899 926 L 900 927 L 900 928 L 901 929 L 901 930 L 903 932 L 903 933 L 904 934 L 904 935 L 905 936 L 905 937 L 906 938 L 906 939 L 908 941 L 908 942 L 909 943 L 909 944 L 910 945 L 910 946 L 911 947 L 911 948 L 912 949 L 912 950 L 914 952 L 914 953 L 915 954 L 927 954 L 927 953 L 925 951 L 925 950 L 924 949 L 924 948 L 923 947 L 923 946 L 922 945 L 922 944 L 921 943 L 921 942 L 919 940 L 919 939 L 918 938 L 918 937 L 917 936 L 917 935 L 916 934 L 916 933 L 914 931 L 914 930 L 913 929 L 913 928 L 912 927 L 912 926 L 911 925 L 911 924 L 909 922 L 909 921 L 908 920 L 908 919 L 907 918 L 907 917 L 906 916 L 906 915 L 905 914 L 905 913 L 903 911 L 903 910 L 902 909 L 902 908 L 901 907 L 901 906 L 900 905 L 900 904 L 898 902 L 898 901 L 897 900 L 897 899 L 896 898 L 896 897 L 895 896 L 895 895 L 893 893 L 893 892 L 892 891 L 892 890 L 891 889 L 891 888 L 890 887 L 890 886 L 888 884 L 888 883 L 887 882 L 887 881 L 886 880 L 886 879 L 885 878 L 885 877 L 883 875 Z M 644 874 L 643 875 L 641 875 L 640 876 L 639 876 L 638 877 L 637 877 L 631 883 L 631 884 L 630 885 L 630 886 L 629 887 L 629 888 L 628 889 L 628 939 L 629 940 L 629 941 L 630 942 L 630 943 L 631 944 L 631 945 L 636 950 L 637 950 L 639 952 L 641 952 L 642 953 L 644 953 L 645 954 L 723 954 L 724 953 L 727 953 L 728 952 L 729 952 L 730 951 L 731 951 L 738 944 L 738 943 L 739 942 L 739 940 L 740 939 L 740 935 L 741 934 L 741 895 L 740 894 L 740 888 L 739 887 L 739 886 L 738 885 L 738 884 L 736 882 L 736 881 L 734 879 L 733 879 L 731 877 L 730 877 L 729 876 L 728 876 L 727 875 L 725 875 L 724 874 Z M 647 885 L 648 884 L 720 884 L 721 885 L 723 885 L 724 886 L 725 886 L 728 889 L 728 890 L 729 891 L 729 893 L 730 894 L 730 934 L 729 935 L 729 937 L 727 939 L 727 940 L 726 941 L 725 941 L 723 943 L 721 943 L 720 944 L 648 944 L 647 943 L 645 943 L 640 938 L 640 937 L 639 936 L 639 892 L 640 891 L 640 890 L 645 885 Z M 464 874 L 463 875 L 461 875 L 460 876 L 459 876 L 458 877 L 457 877 L 456 878 L 455 878 L 451 882 L 451 883 L 449 885 L 449 886 L 448 887 L 448 890 L 447 891 L 447 937 L 448 938 L 448 941 L 449 942 L 449 943 L 451 945 L 451 946 L 455 950 L 456 950 L 457 951 L 458 951 L 459 952 L 460 952 L 461 953 L 463 953 L 464 954 L 548 954 L 549 953 L 551 953 L 552 952 L 554 952 L 556 950 L 557 950 L 562 945 L 562 944 L 563 943 L 563 942 L 564 941 L 564 940 L 565 939 L 565 889 L 564 888 L 564 886 L 563 885 L 563 884 L 556 877 L 555 877 L 554 876 L 553 876 L 552 875 L 549 875 L 548 874 Z M 466 885 L 467 884 L 545 884 L 546 885 L 548 885 L 550 887 L 551 887 L 552 888 L 552 889 L 554 891 L 554 894 L 555 895 L 555 896 L 554 897 L 554 937 L 548 943 L 546 943 L 545 944 L 468 944 L 467 943 L 465 943 L 464 942 L 463 942 L 459 938 L 459 937 L 458 936 L 458 892 L 459 891 L 459 890 L 464 885 Z M 299 874 L 299 899 L 298 900 L 298 906 L 299 907 L 299 943 L 298 944 L 298 950 L 299 951 L 299 952 L 298 953 L 299 954 L 309 954 L 310 953 L 310 922 L 311 921 L 383 921 L 384 920 L 384 911 L 383 910 L 310 910 L 309 909 L 310 908 L 310 907 L 309 906 L 309 902 L 310 901 L 310 887 L 309 886 L 311 884 L 392 884 L 392 874 Z M 758 409 L 756 411 L 756 412 L 753 415 L 753 416 L 749 420 L 749 421 L 746 424 L 746 425 L 742 429 L 742 430 L 739 433 L 739 434 L 735 438 L 735 439 L 731 443 L 731 444 L 728 447 L 728 448 L 725 451 L 725 452 L 721 456 L 721 457 L 718 460 L 718 461 L 714 465 L 714 466 L 711 469 L 711 470 L 708 473 L 708 474 L 704 478 L 704 479 L 701 482 L 701 483 L 697 487 L 697 488 L 694 491 L 694 492 L 690 496 L 690 497 L 687 500 L 687 501 L 684 504 L 684 505 L 680 509 L 680 510 L 677 513 L 677 514 L 673 518 L 673 519 L 670 522 L 670 523 L 666 527 L 666 528 L 663 531 L 663 532 L 660 535 L 660 536 L 656 540 L 656 541 L 653 544 L 653 545 L 649 549 L 649 550 L 646 553 L 646 554 L 643 557 L 643 558 L 639 562 L 639 563 L 636 566 L 636 567 L 633 570 L 633 571 L 629 575 L 629 576 L 626 579 L 626 580 L 622 584 L 622 585 L 619 588 L 619 589 L 616 592 L 616 593 L 612 597 L 612 598 L 608 602 L 608 603 L 605 606 L 605 607 L 602 610 L 602 611 L 598 615 L 598 616 L 595 619 L 595 620 L 592 623 L 592 624 L 588 628 L 588 629 L 585 632 L 585 633 L 581 637 L 581 638 L 578 641 L 578 642 L 575 645 L 575 646 L 571 650 L 571 651 L 567 655 L 567 656 L 564 659 L 564 660 L 561 663 L 561 664 L 557 668 L 557 669 L 554 672 L 554 673 L 550 677 L 550 678 L 547 681 L 547 682 L 543 686 L 543 687 L 540 690 L 540 691 L 536 695 L 536 696 L 533 699 L 533 700 L 530 703 L 530 704 L 526 708 L 526 709 L 523 712 L 523 713 L 519 717 L 519 718 L 516 721 L 516 722 L 512 726 L 512 727 L 508 731 L 508 732 L 505 735 L 505 736 L 502 739 L 502 740 L 498 744 L 498 745 L 495 748 L 495 749 L 492 752 L 492 753 L 488 757 L 488 758 L 485 761 L 485 762 L 481 766 L 481 767 L 478 770 L 478 771 L 475 774 L 475 775 L 471 779 L 471 780 L 468 783 L 468 784 L 465 787 L 465 788 L 461 792 L 461 793 L 458 796 L 458 797 L 455 800 L 455 801 L 451 805 L 451 806 L 448 809 L 448 810 L 444 814 L 444 815 L 538 815 L 540 813 L 540 812 L 544 808 L 544 807 L 547 804 L 547 803 L 551 799 L 551 798 L 555 794 L 555 793 L 558 790 L 558 789 L 561 786 L 561 785 L 565 781 L 565 780 L 569 776 L 569 775 L 573 771 L 573 770 L 576 767 L 576 766 L 579 763 L 579 762 L 582 759 L 582 758 L 586 754 L 586 753 L 590 749 L 590 748 L 593 745 L 593 744 L 597 740 L 597 739 L 600 736 L 600 735 L 604 731 L 604 730 L 607 727 L 607 726 L 611 722 L 611 721 L 614 718 L 614 717 L 619 712 L 619 711 L 622 708 L 622 707 L 625 704 L 625 703 L 629 699 L 629 698 L 633 694 L 633 693 L 636 690 L 636 689 L 640 685 L 640 684 L 643 681 L 643 680 L 647 676 L 647 675 L 650 672 L 650 671 L 654 667 L 654 666 L 658 662 L 658 661 L 661 658 L 661 657 L 665 653 L 665 652 L 668 649 L 668 648 L 672 644 L 672 643 L 676 639 L 676 638 L 679 635 L 679 634 L 683 630 L 683 629 L 686 626 L 686 625 L 690 621 L 690 620 L 693 617 L 693 616 L 697 612 L 697 611 L 700 608 L 700 607 L 703 604 L 703 603 L 707 599 L 707 598 L 710 595 L 710 594 L 714 590 L 714 589 L 718 585 L 718 584 L 721 581 L 721 580 L 725 576 L 725 575 L 728 572 L 728 571 L 731 568 L 731 567 L 735 563 L 735 562 L 739 558 L 739 557 L 742 554 L 742 553 L 746 549 L 748 551 L 748 552 L 749 553 L 749 554 L 750 555 L 750 556 L 751 557 L 751 558 L 753 560 L 753 561 L 754 562 L 754 563 L 755 564 L 755 565 L 756 566 L 756 567 L 758 569 L 758 570 L 759 571 L 759 572 L 760 573 L 760 574 L 761 575 L 761 576 L 763 578 L 763 579 L 764 580 L 764 581 L 765 582 L 765 583 L 766 584 L 766 585 L 768 587 L 768 588 L 769 589 L 769 590 L 770 591 L 770 592 L 772 594 L 772 595 L 773 596 L 773 597 L 774 598 L 774 599 L 775 600 L 775 601 L 776 602 L 776 603 L 778 605 L 778 606 L 779 607 L 779 608 L 780 609 L 780 610 L 781 611 L 781 612 L 783 614 L 783 615 L 784 616 L 784 617 L 785 618 L 785 619 L 786 620 L 786 621 L 788 623 L 788 624 L 789 625 L 789 626 L 790 627 L 790 628 L 791 629 L 791 630 L 793 632 L 793 633 L 794 634 L 794 635 L 795 636 L 795 637 L 796 638 L 796 639 L 797 640 L 797 641 L 798 642 L 797 643 L 714 643 L 709 648 L 709 649 L 705 653 L 705 654 L 702 657 L 702 658 L 698 662 L 698 663 L 695 666 L 695 667 L 691 671 L 691 672 L 688 675 L 688 676 L 684 680 L 684 681 L 681 684 L 681 685 L 677 689 L 677 690 L 673 694 L 673 695 L 670 698 L 670 699 L 666 703 L 666 704 L 663 707 L 663 708 L 659 712 L 659 713 L 655 717 L 839 717 L 840 718 L 840 719 L 841 720 L 841 721 L 842 722 L 842 723 L 843 724 L 843 725 L 844 726 L 844 727 L 846 729 L 846 730 L 847 731 L 847 732 L 848 733 L 848 734 L 849 735 L 849 736 L 851 738 L 851 739 L 852 740 L 852 741 L 853 742 L 853 743 L 854 744 L 854 745 L 855 746 L 855 747 L 857 749 L 857 750 L 858 751 L 858 752 L 859 753 L 859 754 L 860 755 L 860 756 L 861 757 L 861 758 L 863 760 L 863 761 L 864 762 L 864 763 L 865 764 L 865 765 L 867 767 L 867 768 L 868 769 L 868 770 L 869 771 L 869 772 L 870 773 L 870 774 L 871 775 L 871 776 L 873 778 L 873 779 L 874 780 L 874 781 L 875 782 L 875 783 L 876 784 L 876 785 L 878 787 L 878 788 L 879 789 L 879 790 L 880 791 L 880 792 L 881 793 L 881 794 L 882 795 L 882 796 L 884 798 L 884 799 L 885 800 L 885 801 L 886 802 L 886 803 L 887 804 L 887 805 L 889 807 L 889 808 L 890 809 L 890 810 L 891 811 L 891 812 L 892 813 L 892 814 L 893 815 L 981 815 L 981 814 L 979 812 L 979 811 L 978 810 L 978 809 L 977 808 L 977 807 L 976 806 L 976 805 L 975 804 L 975 803 L 973 801 L 973 800 L 972 799 L 972 798 L 971 797 L 971 796 L 970 795 L 970 794 L 969 793 L 969 792 L 968 791 L 968 790 L 966 788 L 966 787 L 965 786 L 965 785 L 964 784 L 964 783 L 963 782 L 963 781 L 961 779 L 961 778 L 960 777 L 960 776 L 959 775 L 959 774 L 958 773 L 958 772 L 957 771 L 957 770 L 956 769 L 956 768 L 954 766 L 954 765 L 953 764 L 953 763 L 952 762 L 952 761 L 951 760 L 951 759 L 950 758 L 950 757 L 948 755 L 948 754 L 947 753 L 947 752 L 946 751 L 946 750 L 945 749 L 945 748 L 943 746 L 943 745 L 942 744 L 942 743 L 941 742 L 941 741 L 940 740 L 940 739 L 939 738 L 939 737 L 937 735 L 937 734 L 936 733 L 936 732 L 935 731 L 935 730 L 934 729 L 934 728 L 932 726 L 932 725 L 931 724 L 931 723 L 930 722 L 930 721 L 929 720 L 929 719 L 928 718 L 928 717 L 926 715 L 926 714 L 925 713 L 925 712 L 924 711 L 924 710 L 923 709 L 923 708 L 922 707 L 922 706 L 921 705 L 921 704 L 919 702 L 919 701 L 918 700 L 918 699 L 917 698 L 917 697 L 915 695 L 915 694 L 914 693 L 914 692 L 913 691 L 913 690 L 912 689 L 912 688 L 911 687 L 911 686 L 909 684 L 909 683 L 908 682 L 908 681 L 907 680 L 907 679 L 906 678 L 906 677 L 905 676 L 905 675 L 903 673 L 903 672 L 902 671 L 902 670 L 901 669 L 901 668 L 900 667 L 900 666 L 898 664 L 898 663 L 897 662 L 897 661 L 896 660 L 896 659 L 895 658 L 895 657 L 894 656 L 894 655 L 892 653 L 892 652 L 891 651 L 891 650 L 890 649 L 890 648 L 889 647 L 889 646 L 888 645 L 888 644 L 886 642 L 886 641 L 885 640 L 885 639 L 884 638 L 884 637 L 883 636 L 883 635 L 881 633 L 881 632 L 880 631 L 880 630 L 879 629 L 879 628 L 878 627 L 878 626 L 877 625 L 877 624 L 875 622 L 875 621 L 874 620 L 874 619 L 873 618 L 873 617 L 872 616 L 872 615 L 871 614 L 871 613 L 870 612 L 870 611 L 868 609 L 868 608 L 867 607 L 867 606 L 866 605 L 866 604 L 865 603 L 865 602 L 863 600 L 863 599 L 862 598 L 862 597 L 861 596 L 861 595 L 860 594 L 860 593 L 859 592 L 859 591 L 857 589 L 857 588 L 856 587 L 856 586 L 855 585 L 855 584 L 854 583 L 854 582 L 853 581 L 853 580 L 851 578 L 851 577 L 850 576 L 850 575 L 849 574 L 849 573 L 848 572 L 848 571 L 846 569 L 846 568 L 845 567 L 845 566 L 844 565 L 844 564 L 843 563 L 843 562 L 842 561 L 842 560 L 841 559 L 841 558 L 839 556 L 839 555 L 838 554 L 838 553 L 837 552 L 837 551 L 836 550 L 836 549 L 835 548 L 835 547 L 833 545 L 833 544 L 832 543 L 832 542 L 831 541 L 831 540 L 830 539 L 830 538 L 828 536 L 828 535 L 827 534 L 827 533 L 826 532 L 826 531 L 825 530 L 825 529 L 824 528 L 824 527 L 823 526 L 823 525 L 821 523 L 821 522 L 820 521 L 820 520 L 819 519 L 819 518 L 817 516 L 817 515 L 816 514 L 816 513 L 815 512 L 815 511 L 814 510 L 814 509 L 813 508 L 813 507 L 811 505 L 811 504 L 810 503 L 810 502 L 809 501 L 809 500 L 808 499 L 808 498 L 807 497 L 807 496 L 805 494 L 805 493 L 804 492 L 804 491 L 803 490 L 803 489 L 802 488 L 802 487 L 801 486 L 801 485 L 799 483 L 799 482 L 798 481 L 798 480 L 797 479 L 797 478 L 796 477 L 796 476 L 795 475 L 795 474 L 793 472 L 793 471 L 792 470 L 792 469 L 791 468 L 791 467 L 790 466 L 790 465 L 789 464 L 789 463 L 787 461 L 787 460 L 786 459 L 786 458 L 785 457 L 785 456 L 784 455 L 784 454 L 783 453 L 783 452 L 781 450 L 781 449 L 780 448 L 780 447 L 779 446 L 779 445 L 778 444 L 778 443 L 776 441 L 776 440 L 775 439 L 775 438 L 774 437 L 774 436 L 773 435 L 773 434 L 772 433 L 772 432 L 770 430 L 770 429 L 769 428 L 769 427 L 768 426 L 768 425 L 766 423 L 766 422 L 765 421 L 765 420 L 764 419 L 764 418 L 763 417 L 763 416 L 762 415 L 762 414 L 760 412 L 760 411 L 759 410 L 759 409 Z M 389 319 L 389 813 L 389 812 L 392 809 L 392 808 L 395 805 L 395 804 L 398 801 L 398 800 L 401 797 L 401 796 L 404 793 L 404 792 L 407 789 L 407 788 L 410 785 L 410 784 L 413 781 L 413 780 L 417 776 L 417 775 L 420 772 L 420 771 L 423 768 L 423 767 L 426 764 L 426 763 L 429 760 L 429 759 L 432 756 L 432 755 L 435 752 L 435 751 L 438 748 L 438 747 L 441 744 L 441 743 L 444 740 L 444 739 L 447 736 L 447 735 L 451 731 L 451 730 L 454 727 L 454 726 L 457 723 L 457 722 L 460 719 L 460 718 L 463 715 L 463 714 L 464 713 L 464 555 L 465 554 L 602 554 L 602 553 L 605 550 L 605 549 L 608 546 L 608 545 L 612 541 L 612 540 L 615 537 L 615 536 L 618 533 L 618 532 L 621 529 L 621 528 L 624 525 L 624 524 L 628 520 L 628 519 L 631 516 L 631 515 L 634 512 L 634 511 L 638 507 L 638 506 L 641 503 L 641 502 L 644 499 L 644 498 L 647 495 L 647 494 L 651 490 L 651 489 L 654 486 L 654 485 L 657 482 L 657 481 L 660 478 L 660 477 L 663 474 L 663 473 L 465 473 L 464 472 L 464 401 L 465 400 L 720 400 L 724 396 L 724 395 L 727 392 L 727 391 L 731 387 L 731 386 L 734 383 L 734 382 L 737 379 L 737 378 L 741 374 L 741 373 L 744 370 L 744 369 L 747 366 L 747 365 L 750 362 L 750 361 L 754 357 L 754 356 L 757 353 L 757 352 L 761 348 L 761 347 L 764 344 L 764 343 L 767 340 L 767 339 L 770 336 L 770 335 L 774 331 L 774 330 L 777 327 L 777 326 L 781 322 L 781 321 L 782 320 L 782 319 Z " fill="white" fill-rule="evenodd" />
</svg>